<?xml version="1.0" encoding="utf-8"?>
<!-- Svg Vector Icons : http://www.onlinewebfonts.com/icon -->
<!DOCTYPE svg PUBLIC "-//W3C//DTD SVG 1.1//EN" "http://www.w3.org/Graphics/SVG/1.1/DTD/svg11.dtd">
<svg version="1.1" xmlns="http://www.w3.org/2000/svg" xmlns:xlink="http://www.w3.org/1999/xlink" x="0px" y="0px" viewBox="0 0 1000 1000" enable-background="new 0 0 1000 1000" xml:space="preserve">
<metadata> Svg Vector Icons : http://www.onlinewebfonts.com/icon </metadata>
<g><g transform="translate(0.000000,512.000000) scale(0.100000,-0.100000)"><path d="M4641.9,4998c-938.5-178.1-1551.5-1093.7-1358-2030.3c103.4-507.6,427.1-930.9,898.3-1174.1l157.1-82.4V667.3v-1042l-76.6-113c-166.6-243.3-285.4-568.9-344.8-942.4c-15.3-91.9-26.8-517.1-32.6-1199l-9.6-1059.2h1149.2h1149.2l316,532.5c653.2,1097.5,861.9,1488.3,936.6,1758.3c42.1,147.5,42.1,183.9,49.8,1321.6c5.8,1116.6,3.8,1176-30.6,1268c-21.1,53.6-195.4,319.9-386.9,595.7l-350.5,498l-76.6-109.2c-191.5-275.8-434.8-492.3-733.6-657l-141.7-78.5v-354.3c0-421.4-13.4-465.4-145.6-465.4c-36.4,0-72.8,15.3-95.8,40.2c-34.5,38.3-36.4,74.7-36.4,530.5v488.4l134.1,57.5c381.2,160.9,704.9,469.3,881.1,838.9c116.8,247.1,147.5,379.2,157.1,687.6c7.7,250.9,3.8,295-40.2,463.5c-157.1,611-624.4,1084.1-1227.8,1243.1C5183.9,5022.9,4843,5036.3,4641.9,4998z M5383.1,4637.9c216.4-70.9,379.2-172.4,545.9-339c218.4-218.3,342.9-455.9,396.5-754.7c88.1-486.5-124.5-1030.5-519.1-1325.4c-114.9-88.1-279.6-180-318-180c-11.5,0-19.2,122.6-19.2,350.5c0,325.6-3.8,354.3-46,444.4c-55.6,116.8-160.9,224.1-277.7,281.6c-69,34.5-120.7,44.1-231.8,44.1c-237.5-1.9-409.9-107.3-511.4-312.2c-51.7-105.3-53.6-122.6-59.4-438.6c-3.8-182-13.4-331.4-21.1-331.4c-32.6,0-231.8,147.5-335.2,245.2c-191.5,185.8-325.6,423.3-386.9,685.7c-32.6,147.5-38.3,453.9-9.6,582.3c120.7,536.3,498,932.8,1020.9,1072.6C4816.2,4718.3,5170.5,4706.8,5383.1,4637.9z"/><path d="M2908.4,2404.6c-182-61.3-323.7-212.6-371.6-394.6c-47.9-174.3,15.3-404.2,145.6-536.3c126.4-124.5,243.3-164.7,522.9-178.1c195.4-7.7,231.8-13.4,185.8-28.7c-97.7-32.6-212.6-122.6-273.9-214.5c-197.3-298.8-74.7-701,256.7-846.6c57.5-24.9,145.6-34.5,386.9-40.2l310.3-7.7v662.7v664.6l-59.4,32.6c-164.7,88.1-348.6,226-482.7,362c-139.8,137.9-321.8,385-379.2,509.5C3121,2452.5,3057.8,2456.3,2908.4,2404.6z"/><path d="M3573.1-4396.9V-4780h1455.7h1455.7v383.1v383.1H5028.8H3573.1V-4396.9z"/></g></g>
</svg>