<?xml version="1.0" encoding="UTF-8"?>
<svg xmlns="http://www.w3.org/2000/svg" xmlns:xlink="http://www.w3.org/1999/xlink" width="56pt" height="70pt" viewBox="0 0 56 70" version="1.1">
<g id="surface1">
<path style=" stroke:none;fill-rule:nonzero;fill:rgb(0%,0%,0%);fill-opacity:1;" d="M 5.25 18.460938 L 5.25 18.324219 C 5.25 16.878906 6.425781 15.707031 7.875 15.707031 L 11.015625 15.707031 L 12.765625 13.960938 L 7 13.960938 C 5.410156 13.96875 4.023438 15.046875 3.628906 16.582031 C 3.878906 17.40625 4.46875 18.089844 5.25 18.460938 Z M 5.25 18.460938 "/>
<path style=" stroke:none;fill-rule:nonzero;fill:rgb(0%,0%,0%);fill-opacity:1;" d="M 18.734375 15.707031 L 20.640625 15.707031 L 25.1875 11.171875 C 24.667969 11.148438 24.160156 11.003906 23.707031 10.75 Z M 18.734375 15.707031 "/>
<path style=" stroke:none;fill-rule:nonzero;fill:rgb(0%,0%,0%);fill-opacity:1;" d="M 31.5 37.523438 L 31.5 35.78125 C 31.503906 33.371094 33.460938 31.417969 35.875 31.417969 L 49 31.417969 L 49 20.945312 L 8.75 20.945312 C 6.867188 21.058594 5.007812 20.507812 3.5 19.382812 L 3.5 48.871094 C 3.5 50.796875 5.066406 52.359375 7 52.359375 L 49 52.359375 L 49 41.886719 L 35.875 41.886719 C 33.460938 41.882812 31.503906 39.933594 31.5 37.523438 Z M 10.5 49.742188 L 8.75 49.742188 L 8.75 47.996094 L 10.5 47.996094 Z M 10.5 46.25 L 8.75 46.25 L 8.75 23.5625 L 10.5 23.5625 Z M 10.5 46.25 "/>
<path style=" stroke:none;fill-rule:nonzero;fill:rgb(0%,0%,0%);fill-opacity:1;" d="M 25.890625 15.707031 L 32.628906 8.980469 C 32.972656 8.644531 33.527344 8.644531 33.871094 8.980469 C 34.5 9.585938 35.5 9.585938 36.128906 8.980469 C 36.457031 8.652344 36.984375 8.640625 37.328125 8.945312 L 44.957031 15.707031 L 46.890625 15.707031 L 35 3.851562 L 23.109375 15.707031 Z M 25.890625 15.707031 "/>
<path style=" stroke:none;fill-rule:nonzero;fill:rgb(0%,0%,0%);fill-opacity:1;" d="M 23.003906 8.980469 C 23.347656 8.644531 23.902344 8.644531 24.246094 8.980469 C 24.867188 9.601562 25.882812 9.601562 26.503906 8.980469 C 26.777344 8.714844 27.191406 8.65625 27.527344 8.839844 L 28.953125 7.417969 L 25.375 3.851562 L 13.484375 15.707031 L 16.265625 15.707031 Z M 23.003906 8.980469 "/>
<path style=" stroke:none;fill-rule:nonzero;fill:rgb(0%,0%,0%);fill-opacity:1;" d="M 35.875 33.160156 C 34.425781 33.160156 33.25 34.332031 33.25 35.78125 L 33.25 37.523438 C 33.25 38.972656 34.425781 40.144531 35.875 40.144531 L 50.75 40.144531 C 51.714844 40.144531 52.5 39.359375 52.5 38.398438 L 52.5 32.691406 C 51.96875 33 51.367188 33.160156 50.75 33.160156 Z M 36.75 38.398438 C 35.785156 38.398438 35 37.617188 35 36.652344 C 35 35.6875 35.785156 34.90625 36.75 34.90625 C 37.714844 34.90625 38.5 35.6875 38.5 36.652344 C 38.5 37.617188 37.714844 38.398438 36.75 38.398438 Z M 36.75 38.398438 "/>
<path style=" stroke:none;fill-rule:nonzero;fill:rgb(0%,0%,0%);fill-opacity:1;" d="M 50.75 47.125 L 52.5 47.125 L 52.5 41.40625 C 51.972656 41.71875 51.367188 41.882812 50.75 41.886719 Z M 50.75 47.125 "/>
<path style=" stroke:none;fill-rule:nonzero;fill:rgb(0%,0%,0%);fill-opacity:1;" d="M 47.609375 13.960938 L 49.359375 15.707031 L 49.875 15.707031 L 49.875 17.453125 L 42.875 17.453125 L 42.875 16.195312 L 36.707031 10.730469 C 35.667969 11.339844 34.378906 11.347656 33.332031 10.753906 L 28.359375 15.707031 L 39.375 15.707031 L 39.375 17.453125 L 7.875 17.453125 C 7.390625 17.453125 7 17.84375 7 18.324219 L 7 19.039062 C 7.574219 19.144531 8.164062 19.199219 8.75 19.199219 L 49.875 19.199219 C 50.359375 19.199219 50.75 19.585938 50.75 20.070312 L 50.75 31.417969 C 51.714844 31.417969 52.5 30.632812 52.5 29.671875 L 52.5 13.960938 Z M 47.609375 13.960938 "/>
</g>
</svg>
